<?xml version="1.0" encoding="UTF-8"?>
<svg xmlns="http://www.w3.org/2000/svg" viewBox="330 225 450 600" role="img" aria-labelledby="petacerita-logo-title">
<title id="petacerita-logo-title">Logo PetaCerita</title>
<path d="M367.68 439.87C367.52 441.58 367.37 443.29 367.21 445C367.21 448.67 367.21 452.33 367.21 456C367.37 458.37 367.52 460.74 367.68 463.11C368 485.57 374.62 508.2 380.73 529.65C393.3 573.73 411.31 616.23 432.75 656.72C440.54 671.43 448.99 685.6 457.89 699.64C463.1 707.88 468.64 717.19 475.68 723.99C480.8 733.16 490.11 739.42 497.09 746.93C499.44 760.49 489.18 768.65 477.41 760.08C462.18 749.01 449.71 729.71 439.29 714.24C429.74 700.05 421.43 685.15 413.44 670.05C389.68 625.16 370.04 578.25 356.25 529.34C347.61 498.71 341.36 465.73 344.48 433.77C346.91 409 352.42 384.77 362.48 361.96C395.51 287.05 473.03 247.49 552.5 245.58C586.79 244.75 621.19 251.01 651.97 266.53C720.68 301.16 761.73 378.02 753.68 454.45C750.76 482.1 741.66 508.69 730.53 534.03C712.48 575.14 689.38 613.21 665.67 651.21C643.89 686.11 618.2 718.81 591.65 750.17C585.55 757.38 579.2 764.34 572.88 771.35C569.78 774.79 566.19 779.86 561.47 780.97C551.22 783.38 542.98 772.57 548.99 763.51C551.64 759.52 555.71 755.97 558.92 752.4C565.23 745.37 571.4 738.22 577.5 731C596.22 708.87 613.86 685.71 630.44 661.94C643.56 643.11 655.83 623.75 667.53 604.01C709.56 533.14 754.15 451.09 717.41 368.09C700.28 329.42 669.73 299.56 631.19 282.39C603.13 269.89 570.81 266.7 540.51 269.35C465.21 275.95 397.89 317.14 375.91 392.45C371.44 407.76 367.74 423.85 367.68 439.87Z" fill="#566951" fill-rule="evenodd" stroke="#566951" stroke-width="0.25" stroke-linejoin="round"/>
<path d="M554 358.32C560.36 358.31 566.73 358.3 573.09 358.3C575.73 358.52 578.36 358.74 581 358.96C587.63 360.16 594.43 360.8 600.96 362.53C624.88 368.85 645.44 384.22 655.36 407.2C658.66 414.83 659.96 422.83 661.16 431C661.15 435.33 661.15 439.67 661.15 444C660.06 452.87 658.87 461.77 655.59 470.18C642.78 503.01 613.96 526.2 581.33 537.77C569.8 541.86 557.91 543.15 545.87 544.49C538.44 545.31 529.92 546.28 522.5 545.06C509.15 542.85 510.62 525.99 523 522.69C528.37 522.56 533.73 522.44 539.1 522.32C574.13 521.03 612.02 503.76 629.39 471.87C633.36 464.57 636.05 456.72 637.21 448.5C638.44 439.75 638.47 431.06 636.18 422.46C628.6 394.01 598.06 381.45 570.96 381.69C565.59 381.68 560.22 381.68 554.85 381.67C525.57 381.61 488.81 392.94 487.68 428C487.67 437.02 487.67 446.05 487.67 455.07C488.18 466.05 488.68 477.02 489.19 488C489.35 490.03 489.51 492.06 489.68 494.09C489.83 497.06 489.98 500.03 490.13 503C490.31 505.66 490.49 508.32 490.67 510.98C490.83 513.99 490.99 516.99 491.15 520C491.33 523.34 491.51 526.68 491.69 530.01C491.85 533.68 492 537.34 492.16 541C492.33 544.02 492.51 547.04 492.68 550.07C492.86 555.04 493.04 560.02 493.21 565C493.39 567.29 493.56 569.57 493.73 571.86C493.88 575.91 494.04 579.95 494.2 584C494.36 586.36 494.51 588.72 494.67 591.09C494.85 595.39 495.03 599.7 495.22 604C495.37 606.64 495.53 609.28 495.68 611.92C495.87 616.61 496.06 621.31 496.24 626C496.4 628.65 496.55 631.31 496.71 633.96C496.57 660.8 500.22 687.61 499.77 714.5C499.62 723.92 500.65 738.32 497.09 746.93C490.11 739.42 480.8 733.16 475.68 723.99C478.69 715.76 476.4 695.36 475.77 686C475.61 682.71 475.45 679.41 475.29 676.12C472.8 626.41 470.31 576.71 467.81 527C467.65 524.65 467.48 522.29 467.32 519.94C466.8 509.63 466.28 499.31 465.76 489C465.61 487.01 465.46 485.02 465.31 483.03C464.81 469.69 464.3 456.34 463.8 443C463.81 440 463.81 437 463.82 434C464.84 424.79 465.25 415.9 468.59 407.1C477.49 383.63 496.98 369.58 520.66 363.29C529.64 360.91 538.88 360.36 548 358.91C550 358.71 552 358.51 554 358.32ZM540.11 788C540.15 789.67 540.19 791.33 540.23 793C538.96 797.69 536.2 802.17 531.21 803.63C523.13 806 513.14 800.6 512.99 791.5C512.87 783.49 520.65 776.06 528.81 777.61C534.79 778.74 537.97 782.69 540.11 788Z" fill="#c07450" fill-rule="evenodd" stroke="#c07450" stroke-width="0.25" stroke-linejoin="round"/>
<path d="M554 358.32C552 358.51 550 358.71 548 358.91C548.17 358.61 548.33 358.3 548.5 358C550.33 358.11 552.17 358.21 554 358.32ZM573.09 358.3C575.56 358.2 578.03 358.1 580.5 358C580.67 358.32 580.83 358.64 581 358.96C578.36 358.74 575.73 358.52 573.09 358.3ZM570.96 381.69C565.59 381.68 560.22 381.68 554.85 381.67C560.22 381.68 565.59 381.68 570.96 381.69ZM487.68 428C487.67 437.02 487.67 446.05 487.67 455.07C487.67 446.05 487.67 437.02 487.68 428ZM661.16 431C661.44 431.17 661.72 431.33 662 431.5C662 435.5 662 439.5 662 443.5C661.72 443.67 661.43 443.83 661.15 444C661.15 439.67 661.15 435.33 661.16 431ZM463.82 434C463.81 437 463.81 440 463.8 443C463.53 442.83 463.27 442.67 463 442.5C463 439.83 463 437.17 463 434.5C463.27 434.33 463.54 434.17 463.82 434ZM367.68 439.87C367.78 441.42 367.89 442.96 368 444.5C367.74 444.67 367.48 444.83 367.21 445C367.37 443.29 367.52 441.58 367.68 439.87ZM367.21 456C367.47 456.17 367.74 456.33 368 456.5C367.89 458.7 367.78 460.91 367.68 463.11C367.52 460.74 367.37 458.37 367.21 456ZM465.31 483.03C465.46 485.02 465.61 487.01 465.76 489C465.5 488.83 465.25 488.67 465 488.5C465.1 486.68 465.21 484.85 465.31 483.03ZM489.19 488C489.46 488.17 489.73 488.33 490 488.5C489.89 490.36 489.78 492.23 489.68 494.09C489.51 492.06 489.35 490.03 489.19 488ZM490.13 503C490.42 503.17 490.71 503.33 491 503.5C490.89 505.99 490.78 508.49 490.67 510.98C490.49 508.32 490.31 505.66 490.13 503ZM467.32 519.94C467.48 522.29 467.65 524.65 467.81 527C467.54 526.83 467.27 526.67 467 526.5C467.11 524.31 467.21 522.13 467.32 519.94ZM491.15 520C491.44 520.17 491.72 520.33 492 520.5C491.9 523.67 491.79 526.84 491.69 530.01C491.51 526.68 491.33 523.34 491.15 520ZM539.1 522.32C533.73 522.44 528.37 522.56 523 522.69C523.17 522.46 523.33 522.23 523.5 522C528.7 522.11 533.9 522.21 539.1 522.32ZM492.16 541C492.44 541.17 492.72 541.33 493 541.5C492.89 544.36 492.79 547.21 492.68 550.07C492.51 547.04 492.33 544.02 492.16 541ZM493.21 565C493.48 565.17 493.74 565.33 494 565.5C493.91 567.62 493.82 569.74 493.73 571.86C493.56 569.57 493.39 567.29 493.21 565ZM494.2 584C494.47 584.17 494.73 584.33 495 584.5C494.89 586.7 494.78 588.89 494.67 591.09C494.51 588.72 494.36 586.36 494.2 584ZM495.22 604C495.48 604.17 495.74 604.33 496 604.5C495.89 606.97 495.79 609.44 495.68 611.92C495.53 609.28 495.37 606.64 495.22 604ZM496.24 626C496.49 626.17 496.75 626.33 497 626.5C496.9 628.99 496.81 631.47 496.71 633.96C496.55 631.31 496.4 628.65 496.24 626ZM475.29 676.12C475.45 679.41 475.61 682.71 475.77 686C475.51 685.83 475.26 685.67 475 685.5C475.1 682.37 475.19 679.24 475.29 676.12ZM540.11 788C540.41 788.17 540.7 788.33 541 788.5C541 789.83 541 791.17 541 792.5C540.74 792.67 540.49 792.83 540.23 793C540.19 791.33 540.15 789.67 540.11 788Z" fill="#ffffff" fill-rule="evenodd" stroke="#ffffff" stroke-width="0.25" stroke-linejoin="round"/>
</svg>